<svg width="60" height="60" viewBox="0 0 60 60" fill="none" xmlns="http://www.w3.org/2000/svg">
<path d="M46.6213 28.7525C47.1938 30.7363 47.5 32.8325 47.5 35C47.5 47.4262 37.4262 57.5 25 57.5C12.5738 57.5 2.5 47.4262 2.5 35C2.5 22.5738 12.5738 12.5 25 12.5C27.17 12.5 29.2688 12.8075 31.2538 13.38" stroke="#25373F" stroke-width="3" stroke-miterlimit="10" stroke-linecap="round" stroke-linejoin="round"/>
<path d="M25 47.5C31.9036 47.5 37.5 41.9036 37.5 35C37.5 28.0964 31.9036 22.5 25 22.5C18.0964 22.5 12.5 28.0964 12.5 35C12.5 41.9036 18.0964 47.5 25 47.5Z" stroke="#25373F" stroke-width="3" stroke-miterlimit="10" stroke-linecap="round" stroke-linejoin="round"/>
<path d="M25 35L53.75 6.25" stroke="#25373F" stroke-width="3" stroke-miterlimit="10" stroke-linecap="round" stroke-linejoin="round"/>
<path d="M48.75 11.25L46.25 3.75L38.75 11.25L41.25 18.75L48.75 21.25L56.25 13.75L48.75 11.25Z" stroke="#25373F" stroke-width="3" stroke-miterlimit="10" stroke-linecap="round" stroke-linejoin="round"/>
</svg>
