<svg width="63" height="63" viewBox="0 0 63 63" fill="none" xmlns="http://www.w3.org/2000/svg">
<path d="M46.5938 15.75C49.8557 15.75 52.5 13.1057 52.5 9.84375C52.5 6.58182 49.8557 3.9375 46.5938 3.9375C43.3318 3.9375 40.6875 6.58182 40.6875 9.84375C40.6875 13.1057 43.3318 15.75 46.5938 15.75Z" stroke="#25373F" stroke-width="3" stroke-miterlimit="10" stroke-linecap="round" stroke-linejoin="round"/>
<path d="M32.8126 15.75L22.4149 28.0376C21.92 28.6227 21.5592 29.309 21.3579 30.0484C21.1565 30.7878 21.1194 31.5623 21.2492 32.3176C21.3791 33.0728 21.6727 33.7905 22.1094 34.4201C22.5461 35.0498 23.1154 35.5763 23.7773 35.9625L32.8716 41.2676C33.0296 41.3606 33.1664 41.4857 33.2731 41.6348C33.3798 41.7838 33.4541 41.9536 33.4912 42.1332C33.5283 42.3127 33.5274 42.498 33.4885 42.6772C33.4496 42.8563 33.3736 43.0254 33.2654 43.1734L23.6251 56.4375" stroke="#25373F" stroke-width="3" stroke-miterlimit="10" stroke-linecap="round" stroke-linejoin="round"/>
<path d="M13.125 19.6875L17.85 12.6C18.0032 12.3696 18.2253 12.1935 18.4846 12.0968C18.7439 12.0002 19.0271 11.9879 19.2937 12.0619L32.8125 15.75L43.3125 23.625L49.35 34.486C49.4987 34.7534 49.7361 34.9606 50.0213 35.0715C50.3065 35.1825 50.6215 35.1903 50.9119 35.0936L57.75 32.8125" stroke="#25373F" stroke-width="3" stroke-miterlimit="10" stroke-linecap="round" stroke-linejoin="round"/>
<path d="M43.3125 23.625L34.125 34.4938" stroke="#25373F" stroke-width="3" stroke-miterlimit="10" stroke-linecap="round" stroke-linejoin="round"/>
<path d="M18.375 40.6875L5.25 56.4375" stroke="#25373F" stroke-width="3" stroke-miterlimit="10" stroke-linecap="round" stroke-linejoin="round"/>
</svg>
