<svg width="57" height="57" viewBox="0 0 57 57" fill="none" xmlns="http://www.w3.org/2000/svg">
<path d="M26.125 35.625H2.375V2.375H49.875V17.8125" stroke="#25373F" stroke-width="3" stroke-miterlimit="10" stroke-linecap="round" stroke-linejoin="round"/>
<path d="M43.9375 33.25C49.84 33.25 54.625 31.1234 54.625 28.5C54.625 25.8766 49.84 23.75 43.9375 23.75C38.035 23.75 33.25 25.8766 33.25 28.5C33.25 31.1234 38.035 33.25 43.9375 33.25Z" stroke="#25373F" stroke-width="3" stroke-miterlimit="10" stroke-linecap="round" stroke-linejoin="round"/>
<path d="M33.25 28.5V35.625C33.25 38.2482 38.0344 40.375 43.9375 40.375C49.8406 40.375 54.625 38.2482 54.625 35.625V28.5" stroke="#25373F" stroke-width="3" stroke-miterlimit="10" stroke-linecap="round" stroke-linejoin="round"/>
<path d="M33.25 35.625V42.75C33.25 45.3732 38.0344 47.5 43.9375 47.5C49.8406 47.5 54.625 45.3732 54.625 42.75V35.625" stroke="#25373F" stroke-width="3" stroke-miterlimit="10" stroke-linecap="round" stroke-linejoin="round"/>
<path d="M33.25 42.75V49.875C33.25 52.4982 38.0344 54.625 43.9375 54.625C49.8406 54.625 54.625 52.4982 54.625 49.875V42.75" stroke="#25373F" stroke-width="3" stroke-miterlimit="10" stroke-linecap="round" stroke-linejoin="round"/>
<path d="M26.125 23.75C28.7484 23.75 30.875 21.6234 30.875 19C30.875 16.3766 28.7484 14.25 26.125 14.25C23.5016 14.25 21.375 16.3766 21.375 19C21.375 21.6234 23.5016 23.75 26.125 23.75Z" stroke="#25373F" stroke-width="3" stroke-miterlimit="10" stroke-linecap="round" stroke-linejoin="round"/>
</svg>
