<?xml version="1.0" encoding="UTF-8"?>
<svg  viewBox="0 0 400 86" version="1.1" xmlns="http://www.w3.org/2000/svg" xmlns:xlink="http://www.w3.org/1999/xlink">
    <!-- Generator: Sketch 53.2 (72643) - https://sketchapp.com -->
    <title>Custom Preset</title>
    <desc>Created with Sketch.</desc>
    <g id="Custom-Preset" stroke="none" stroke-width="1" fill="none" fill-rule="evenodd">
        <path d="M0,70.9015257 L0,0 L8.80892043,0 L8.80892043,70.9015257 L0,70.9015257 Z M44.1447035,21.5700416 C58.0587937,21.5700416 67.4683224,31.6560333 67.4683224,46.3356449 C67.4683224,64.2108183 54.9556513,72 43.3438925,72 C30.3307146,72 20.1203751,62.4133148 20.1203751,47.1345354 C20.1203751,31.0568655 30.8312215,21.5700416 44.1447035,21.5700416 Z M43.9445008,28.1608877 C33.6340598,28.1608877 29.1294982,37.7475728 29.1294982,46.8349515 C29.1294982,57.4202497 35.1355803,65.409154 43.744298,65.409154 C52.152813,65.409154 58.4591992,57.520111 58.4591992,46.6352288 C58.4591992,38.4466019 54.3550431,28.1608877 43.9445008,28.1608877 Z M111.613026,62.6130374 L113.114546,69.2038835 C110.812215,70.3023578 105.707045,72 99.2004562,72 C84.5856564,72 75.0760264,62.1137309 75.0760264,47.334258 C75.0760264,32.4549237 85.2863659,21.5700416 101.102382,21.5700416 C106.307653,21.5700416 110.912316,22.8682386 113.314749,24.1664355 L111.312722,30.8571429 C109.210593,29.7586685 105.907248,28.5603329 101.102382,28.5603329 C89.9911303,28.5603329 83.9850482,36.8488211 83.9850482,46.8349515 C83.9850482,58.0194175 91.1923467,64.9098474 100.802078,64.9098474 C105.807146,64.9098474 109.110492,63.7115118 111.613026,62.6130374 Z M157.459453,41.2427184 L157.459453,59.3176144 C157.459453,63.5117892 157.659655,67.6061026 158.160162,70.9015257 L150.252154,70.9015257 L149.551445,64.8099861 L149.25114,64.8099861 C146.548403,68.6047157 141.343132,72 134.436138,72 C124.626204,72 119.621135,65.10957 119.621135,58.1192788 C119.621135,46.4355062 130.031678,40.0443828 148.750634,40.1442441 L148.750634,39.1456311 C148.750634,35.2510402 147.649518,27.961165 137.739483,28.0610264 C133.13482,28.0610264 128.430056,29.3592233 125.026609,31.6560333 L123.024582,25.7642164 C127.028637,23.2676838 132.934617,21.5700416 139.040801,21.5700416 C153.855803,21.5700416 157.459453,31.6560333 157.459453,41.2427184 Z M148.950836,54.6241331 L148.950836,46.2357836 C139.341105,46.036061 128.430056,47.7337032 128.430056,57.1206657 C128.430056,62.9126214 132.233908,65.5090153 136.638368,65.5090153 C143.044856,65.5090153 147.149012,61.5145631 148.550431,57.4202497 C148.850735,56.4216366 148.950836,55.4230236 148.950836,54.6241331 Z M171.673847,70.9015257 L171.673847,0 L180.482767,0 L180.482767,70.9015257 L171.673847,70.9015257 Z M204.10669,70.9015257 L195.29777,70.9015257 L195.29777,22.5686546 L204.10669,22.5686546 L204.10669,70.9015257 Z M215.418145,68.6047157 L217.520274,62.0138696 C220.223011,63.6116505 224.827674,65.409154 229.232134,65.409154 C235.53852,65.409154 238.541561,62.3134535 238.541561,58.2191401 C238.541561,54.0249653 236.039027,51.8280166 229.632539,49.4313454 C220.823619,46.2357836 216.719463,41.5423024 216.719463,35.7503467 C216.719463,27.961165 223.12595,21.5700416 233.436391,21.5700416 C238.341358,21.5700416 242.645717,22.8682386 245.248353,24.5658807 L243.146224,30.9570042 C241.244298,29.7586685 237.74075,28.0610264 233.236189,28.0610264 C228.030917,28.0610264 225.228079,31.0568655 225.228079,34.6518724 C225.228079,38.6463245 228.030917,40.443828 234.337304,42.9403606 C242.645717,46.036061 247.050177,50.2302358 247.050177,57.4202497 C247.050177,66.0083218 240.343386,72 229.031931,72 C223.726559,72 218.821591,70.6019417 215.418145,68.6047157 Z M260.363659,13.5811373 L268.972377,10.9847434 L268.972377,22.5686546 L281.58515,22.5686546 L281.58515,29.259362 L268.972377,29.259362 L268.972377,55.3231623 C268.972377,61.3148405 270.6741,64.7101248 275.579067,64.7101248 C277.9815,64.7101248 279.382919,64.5104022 280.684237,64.110957 L281.084643,70.8016644 C279.382919,71.4008322 276.680182,72 273.276736,72 C269.17258,72 265.869235,70.6019417 263.767106,68.3051318 C261.364673,65.6088766 260.363659,61.3148405 260.363659,55.6227462 L260.363659,29.259362 L252.856057,29.259362 L252.856057,22.5686546 L260.363659,22.5686546 L260.363659,13.5811373 Z M338.938165,70.9015257 L338.938165,37.6477115 C338.938165,31.9556172 338.838064,27.0624133 338.53776,22.5686546 L346.245565,22.5686546 L346.645971,32.1553398 L346.946275,32.1553398 C349.148505,25.6643551 354.553979,21.5700416 360.459959,21.5700416 C361.360872,21.5700416 362.061581,21.6699029 362.862392,21.7697642 L362.862392,30.0582524 C361.96148,29.8585298 361.060568,29.8585298 359.859351,29.8585298 C353.653066,29.8585298 349.248606,34.4521498 348.04739,41.0429958 C347.847187,42.2413315 347.747086,43.739251 347.747086,45.1373093 L347.747086,70.9015257 L338.938165,70.9015257 Z M368.367968,68.6047157 L370.470096,62.0138696 C373.172833,63.6116505 377.777496,65.409154 382.181956,65.409154 C388.488343,65.409154 391.491384,62.3134535 391.491384,58.2191401 C391.491384,54.0249653 388.988849,51.8280166 382.582362,49.4313454 C373.773441,46.2357836 369.669285,41.5423024 369.669285,35.7503467 C369.669285,27.961165 376.075773,21.5700416 386.386214,21.5700416 C391.291181,21.5700416 395.59554,22.8682386 398.198175,24.5658807 L396.096047,30.9570042 C394.194121,29.7586685 390.690573,28.0610264 386.186011,28.0610264 C380.98074,28.0610264 378.177902,31.0568655 378.177902,34.6518724 C378.177902,38.6463245 380.98074,40.443828 387.287126,42.9403606 C395.59554,46.036061 400,50.2302358 400,57.4202497 C400,66.0083218 393.293208,72 381.981754,72 C376.676381,72 371.771414,70.6019417 368.367968,68.6047157 Z" id="localist-rs" fill="#0E5F69"></path>
        <path d="M199.550459,3 C202.779817,3 205,5.42201835 205,8.55045872 C205,11.5779817 202.880734,14 199.348624,14 C196.119266,14 194,11.5779817 194,8.55045872 C194,5.52293578 196.220183,3 199.550459,3 Z" id="Path" fill="#FCA82A"></path>
        <path d="M0,86 L0,77.9499533 L283.348306,77.9499533 C283.783361,77.9499533 284.168499,77.666913 284.300884,77.2498967 L301.426801,23.3029444 C302.939322,18.538477 308.003814,15.9099238 312.738661,17.4319064 C315.512987,18.3236938 317.686956,20.511262 318.573199,23.3029444 L335.699116,77.2498967 C335.831501,77.666913 336.216639,77.9499533 336.651694,77.9499533 L400,77.9499533 L400,86 L336.651694,86 C332.736199,86 329.269963,83.452637 328.078495,79.6994908 L310.952578,25.7525384 C310.854106,25.4423515 310.612554,25.1992884 310.304296,25.1002009 C309.778202,24.9310917 309.21548,25.2231532 309.047422,25.7525384 L291.921505,79.6994908 C290.730037,83.452637 287.263801,86 283.348306,86 L0,86 Z" id="Path-2" fill="#FCA82A" fill-rule="nonzero"></path>
    </g>
</svg>